<svg width="70" height="70" viewBox="0 0 70 70" fill="none" xmlns="http://www.w3.org/2000/svg">
<rect width="70" height="70" fill="#E5E5E5"/>
<rect width="1440" height="5752" transform="translate(-685 -5287)" fill="white"/>
<path d="M45.48 44C57.078 44 66.48 34.598 66.48 23C66.48 11.402 57.078 2 45.48 2C33.8821 2 24.48 11.402 24.48 23C24.48 34.598 33.8821 44 45.48 44Z" fill="#F3EDEB"/>
<path d="M16.45 54.2898L15.56 52.5298L14.67 54.2898C13.59 56.4298 11.97 58.1798 10 59.3498L8.54004 60.2098L10 61.0698C11.97 62.2398 13.59 63.9898 14.67 66.1298L15.56 67.8898L16.45 66.1298C17.53 63.9898 19.15 62.2398 21.12 61.0698L22.58 60.2098L21.12 59.3498C19.15 58.1798 17.53 56.4298 16.45 54.2898ZM15.55 63.6898C14.65 62.3398 13.55 61.1598 12.29 60.2098C13.55 59.2498 14.66 58.0798 15.55 56.7298C16.45 58.0798 17.55 59.2598 18.81 60.2098C17.55 61.1598 16.45 62.3398 15.55 63.6898Z" fill="black"/>
<path d="M10.21 51.7802L10.91 51.3502L10.21 50.9202C9.14003 50.2602 8.26003 49.2802 7.67003 48.0802L7.22003 47.1602L6.77003 48.0802C6.18003 49.2902 5.30003 50.2702 4.23003 50.9202L3.53003 51.3502L4.23003 51.7802C5.30003 52.4402 6.18003 53.4202 6.77003 54.6202L7.22003 55.5402L7.67003 54.6202C8.25003 53.4202 9.13003 52.4302 10.21 51.7802ZM7.21003 53.3802C6.71003 52.5902 6.08003 51.9002 5.36003 51.3502C6.08003 50.8002 6.70003 50.1102 7.21003 49.3202C7.71003 50.1102 8.34003 50.8002 9.06003 51.3502C8.34003 51.9002 7.72003 52.5902 7.21003 53.3802Z" fill="black"/>
<path d="M49.7 46.9902C49.23 46.6902 48.62 46.8402 48.32 47.3102C47.73 48.2502 47.09 49.2102 46.41 50.1502C46.09 50.6002 46.19 51.2202 46.64 51.5402C46.82 51.6602 47.02 51.7302 47.22 51.7302C47.53 51.7302 47.84 51.5802 48.04 51.3102C48.73 50.3402 49.4 49.3502 50.01 48.3702C50.31 47.9002 50.17 47.2802 49.7 46.9902Z" fill="black"/>
<path d="M33.48 11.21C25.76 11.21 19.48 17.49 19.48 25.21C19.48 32.93 25.76 39.21 33.48 39.21C41.2 39.21 47.48 32.93 47.48 25.21C47.48 17.49 41.2 11.21 33.48 11.21ZM33.48 37.21C26.86 37.21 21.48 31.83 21.48 25.21C21.48 18.59 26.86 13.21 33.48 13.21C40.1 13.21 45.48 18.59 45.48 25.21C45.48 31.83 40.1 37.21 33.48 37.21Z" fill="black"/>
<path d="M58.61 17.0999L60.07 16.2399L58.61 15.3799C56.64 14.2099 55.02 12.4599 53.94 10.3199L53.05 8.54994L52.16 10.3199C51.91 10.8199 51.62 11.2899 51.32 11.7399C46.87 6.44994 40.44 3.43994 33.49 3.43994C20.6 3.43994 10.11 13.9299 10.11 26.8199C10.11 38.1599 16.32 48.2199 21.52 54.6599C27.12 61.5999 32.64 65.8299 32.87 65.9999L33.47 66.4599L34.07 65.9999C34.3 65.8299 39.81 61.6299 45.41 54.7499C45.76 54.3199 45.69 53.6899 45.26 53.3399C44.83 52.9899 44.2 53.0599 43.85 53.4899C39.47 58.8799 35.04 62.6499 33.46 63.9299C29.93 61.0399 12.08 45.5099 12.08 26.8299C12.08 15.0399 21.67 5.44994 33.46 5.44994C39.94 5.44994 45.93 8.31994 50.01 13.3399C49.25 14.1399 48.4 14.8299 47.47 15.3899L46.01 16.2499L47.47 17.1099C49.44 18.2799 51.06 20.0299 52.14 22.1699L53.03 23.9399L53.92 22.1699C54 22.0099 54.1 21.8699 54.19 21.7199C54.6 23.3899 54.83 25.0999 54.84 26.8399C54.87 32.2399 53.4 37.8599 50.46 43.5399C50.21 44.0299 50.4 44.6299 50.89 44.8899C51.04 44.9699 51.19 44.9999 51.35 44.9999C51.71 44.9999 52.06 44.7999 52.24 44.4599C55.32 38.4899 56.87 32.5599 56.84 26.8299C56.83 24.3599 56.42 21.9299 55.65 19.6099C56.53 18.6099 57.51 17.7499 58.61 17.0999ZM49.78 16.2399C51.04 15.2799 52.15 14.1099 53.04 12.7499C53.94 14.0999 55.04 15.2799 56.3 16.2399C55.46 16.8799 54.7 17.6199 54.01 18.4299C53.8 18.5599 53.65 18.7499 53.57 18.9699C53.38 19.2099 53.2 19.4599 53.03 19.7199C52.15 18.3699 51.05 17.1899 49.78 16.2399Z" fill="black"/>
</svg>
