<svg width="70" height="70" viewBox="0 0 70 70" fill="none" xmlns="http://www.w3.org/2000/svg">
<path d="M47.95 43.92C59.5479 43.92 68.9499 34.518 68.9499 22.92C68.9499 11.322 59.5479 1.92 47.95 1.92C36.352 1.92 26.95 11.322 26.95 22.92C26.95 34.518 36.352 43.92 47.95 43.92Z" fill="#F3EDEB"/>
<path d="M61 26L60.5601 25.12L60.1101 26C60.0401 26.14 59.9501 26.26 59.8801 26.39V19.78H56.92V14C56.92 11.58 54.9201 8.87 52.3601 8.87C49.8 8.87 47.8 11.57 47.8 14V19.79H44.8601V30.69L43.42 34.36L43.3301 34.62C43.3301 34.54 43.3301 34.45 43.25 34.36L41.8101 30.7V19.78H38.87V14C38.87 11.58 36.9201 8.87 34.3101 8.87C31.7001 8.87 29.74 11.57 29.74 14V19.79H26.81V30.69L25.3701 34.36C25.3701 34.45 25.3101 34.54 25.2801 34.62L25.1901 34.36L23.75 30.69V19.78H20.81V14C20.81 11.58 18.86 8.87 16.25 8.87C13.64 8.87 11.69 11.57 11.69 14V19.79H8.75005V30.69L7.31005 34.35C6.92038 35.3406 6.72025 36.3955 6.72005 37.46V46.86L6.64005 47C5.55865 49.1836 3.87145 51.0096 1.78005 52.26L1.05005 52.7L1.78005 53.13C3.87145 54.3804 5.55865 56.2064 6.64005 58.39L6.72005 58.55V63.34H11.52C11.6519 63.3374 11.7776 63.2839 11.8708 63.1907C11.964 63.0975 12.0175 62.9718 12.02 62.84C12.02 62.7074 11.9674 62.5802 11.8736 62.4864C11.7798 62.3927 11.6527 62.34 11.52 62.34H7.72005V58.09C8.80288 56.0492 10.4207 54.3415 12.4 53.15L13.13 52.72L12.4 52.28C10.4076 51.0752 8.78507 49.3454 7.71005 47.28C7.71005 47.28 7.71005 47.28 7.71005 47.21V37.46C7.71219 36.5223 7.88852 35.5932 8.23005 34.72L9.78005 30.78H22.71L24.26 34.72C24.6016 35.5932 24.7779 36.5223 24.7801 37.46V40.36H14.31V59.36H24.7801V62.36H19.5201C19.3874 62.36 19.2603 62.4127 19.1665 62.5064C19.0727 62.6002 19.0201 62.7274 19.0201 62.86C19.0201 62.9926 19.0727 63.1198 19.1665 63.2136C19.2603 63.3073 19.3874 63.36 19.5201 63.36H61.89V37.46C61.8921 36.9703 61.8486 36.4816 61.76 36C62.7978 34.37 64.1974 33.0012 65.85 32L66.58 31.57L65.85 31.14C63.7831 29.9157 62.1023 28.1345 61 26ZM11.21 52.72C9.52377 53.8671 8.11594 55.3774 7.09005 57.14C6.07496 55.3789 4.67721 53.8684 3.00005 52.72C4.68997 51.5699 6.10111 50.0563 7.13005 48.29C8.14678 50.0494 9.54005 51.5622 11.21 52.72ZM12.69 14C12.69 12.09 14.24 9.87 16.25 9.87C18.26 9.87 19.81 12.09 19.81 14V19.79H12.69V14ZM9.75005 20.78H22.75V29.78H9.75005V20.78ZM48.8 14C48.8 12.09 50.3501 9.87 52.3601 9.87C54.37 9.87 55.92 12.09 55.92 14V19.79H48.8V14ZM45.8601 20.79H58.8601V27.9C58.3526 28.587 57.7726 29.2173 57.1301 29.78H45.8601V20.79ZM30.74 14C30.74 12.09 32.3001 9.87 34.3101 9.87C36.32 9.87 37.87 12.09 37.87 14V19.79H30.74V14ZM27.81 20.79H40.8101V29.79H27.81V20.79ZM15.31 58.36V41.36H24.7801V58.36H15.31ZM25.7801 62.36V37.46C25.7774 36.5219 25.9539 35.5919 26.3 34.72L27.84 30.78H40.7701L42.3101 34.72C42.6562 35.5919 42.8327 36.5219 42.8301 37.46V40.36H32.3601V59.36H42.8301V62.36H25.7801ZM42.78 58.36H33.3601V41.36H42.8301L42.78 58.36ZM50.87 45.64C51.0019 45.6374 51.1276 45.5839 51.2208 45.4907C51.314 45.3975 51.3675 45.2718 51.37 45.14V41.36H60.84V58.36H51.42V54.1C51.4175 53.9682 51.364 53.8425 51.2708 53.7493C51.1776 53.6561 51.0519 53.6026 50.92 53.6C50.7874 53.6 50.6603 53.6527 50.5665 53.7464C50.4727 53.8402 50.42 53.9674 50.42 54.1V59.36H60.89V62.36H43.8301V37.46C43.8322 36.5223 44.0085 35.5932 44.35 34.72L45.9001 30.78H55.9001C55.6901 30.93 55.49 31.09 55.28 31.22L54.55 31.65L55.28 32.08C57.3672 33.3356 59.0531 35.1603 60.14 37.34L60.59 38.23L60.94 37.53V40.36H50.42V45.14C50.42 45.2057 50.433 45.2707 50.4581 45.3313C50.4832 45.392 50.5201 45.4471 50.5665 45.4935C50.6129 45.54 50.668 45.5768 50.7287 45.6019C50.7894 45.6271 50.8544 45.64 50.92 45.64H50.87ZM60.87 35.55C60.8309 35.5995 60.7974 35.6532 60.7701 35.71C60.69 35.83 60.6 35.95 60.53 36.08C59.5011 34.3137 58.09 32.8001 56.4001 31.65C58.09 30.4999 59.5011 28.9863 60.53 27.22C61.5583 28.9836 62.9655 30.4967 64.6501 31.65C63.1451 32.6847 61.8632 34.0109 60.8801 35.55H60.87Z" fill="black"/>
<path d="M67.86 24C66.7574 23.3149 65.8729 22.3298 65.31 21.16L64.86 20.24L64.41 21.16C63.8481 22.3272 62.9675 23.3118 61.87 24L61.17 24.43L61.87 24.85C62.97 25.5397 63.851 26.5282 64.41 27.7L64.86 28.62L65.31 27.7C65.8699 26.5256 66.7549 25.5365 67.86 24.85L68.55 24.43L67.86 24ZM64.86 26.46C64.3678 25.6881 63.7413 25.0108 63.01 24.46C63.7391 23.9069 64.3653 23.2299 64.86 22.46C65.3548 23.2299 65.981 23.9069 66.71 24.46C65.9806 25.0048 65.3541 25.6753 64.86 26.44V26.46Z" fill="black"/>
<path d="M16.55 62.36H14.55C14.4174 62.36 14.2903 62.4127 14.1965 62.5064C14.1027 62.6002 14.05 62.7274 14.05 62.86C14.05 62.9926 14.1027 63.1198 14.1965 63.2136C14.2903 63.3073 14.4174 63.36 14.55 63.36H16.55C16.6819 63.3574 16.8076 63.3039 16.9008 63.2107C16.994 63.1175 17.0475 62.9918 17.05 62.86C17.05 62.7274 16.9974 62.6002 16.9036 62.5064C16.8098 62.4127 16.6827 62.36 16.55 62.36Z" fill="black"/>
<path d="M50.42 50.92C50.42 51.0526 50.4727 51.1798 50.5665 51.2736C50.6603 51.3673 50.7874 51.42 50.92 51.42C51.0519 51.4174 51.1775 51.3639 51.2708 51.2707C51.364 51.1775 51.4175 51.0518 51.42 50.92V48.77C51.4175 48.6382 51.364 48.5125 51.2708 48.4193C51.1775 48.3261 51.0519 48.2726 50.92 48.27C50.7874 48.27 50.6603 48.3227 50.5665 48.4165C50.4727 48.5102 50.42 48.6374 50.42 48.77V50.92Z" fill="black"/>
</svg>
