<svg width="70" height="70" viewBox="0 0 70 70" fill="none" xmlns="http://www.w3.org/2000/svg">
<path d="M46.02 44C57.618 44 67.02 34.598 67.02 23C67.02 11.402 57.618 2 46.02 2C34.422 2 25.02 11.402 25.02 23C25.02 34.598 34.422 44 46.02 44Z" fill="#F3EDEB"/>
<path d="M9.66998 13.61L10.37 13.18L9.66998 12.75C8.58998 12.09 7.70998 11.11 7.12998 9.91L6.66998 9L6.21998 9.92C5.62998 11.13 4.74998 12.11 3.67998 12.76L2.97998 13.19L3.67998 13.62C4.75998 14.28 5.63998 15.26 6.21998 16.46L6.66998 17.38L7.11998 16.46C7.70998 15.25 8.58998 14.27 9.66998 13.61ZM4.82998 13.19C5.54998 12.64 6.17998 11.95 6.67998 11.16C7.17998 11.95 7.80998 12.64 8.52998 13.19C7.80998 13.74 7.17998 14.43 6.67998 15.22C6.16998 14.42 5.54998 13.74 4.82998 13.19Z" fill="black"/>
<path d="M64.67 57.76C63.59 57.1 62.71 56.12 62.13 54.92L61.67 54L61.22 54.92C60.63 56.13 59.75 57.11 58.68 57.76L57.98 58.19L58.68 58.62C59.76 59.28 60.64 60.26 61.22 61.46L61.67 62.38L62.12 61.46C62.71 60.25 63.59 59.27 64.66 58.62L65.36 58.19L64.67 57.76ZM61.67 60.22C61.17 59.43 60.54 58.74 59.82 58.19C60.54 57.64 61.17 56.95 61.67 56.16C62.17 56.95 62.8 57.64 63.52 58.19C62.8 58.74 62.18 59.42 61.67 60.22Z" fill="black"/>
<path d="M54.02 34.96C53.47 34.96 53.02 35.41 53.02 35.96V38.97C53.02 39.52 53.47 39.97 54.02 39.97C54.57 39.97 55.02 39.52 55.02 38.97V35.96C55.02 35.4 54.57 34.96 54.02 34.96Z" fill="black"/>
<path d="M13.02 16.19L12.97 16.28C11.89 18.42 10.27 20.17 8.29997 21.34L6.83997 22.2L8.29997 23.06C10.27 24.23 11.89 25.98 12.97 28.12L13.02 28.21V66.7H55.02V44.6C55.02 44.05 54.57 43.6 54.02 43.6C53.47 43.6 53.02 44.05 53.02 44.6V48.44H15.02V27.69C16.1 25.75 17.6 24.15 19.43 23.07L20.89 22.21L19.43 21.35C17.6 20.27 16.09 18.66 15.02 16.73V4.70996H53.02V31.39C53.02 31.94 53.47 32.39 54.02 32.39C54.57 32.39 55.02 31.94 55.02 31.39V2.70996H13.02V16.19ZM53.02 50.45V64.7H15.02V50.45H53.02ZM17.13 22.21C15.87 23.17 14.76 24.34 13.87 25.69C12.97 24.34 11.87 23.16 10.61 22.21C11.87 21.25 12.98 20.08 13.87 18.73C14.76 20.07 15.87 21.25 17.13 22.21Z" fill="black"/>
<path d="M28.87 9C28.32 9 27.87 9.45 27.87 10C27.87 10.55 28.32 11 28.87 11H39.17C39.72 11 40.17 10.55 40.17 10C40.17 9.45 39.72 9 39.17 9H28.87Z" fill="black"/>
<path d="M34.02 61.21C36.23 61.21 38.02 59.42 38.02 57.21C38.02 55 36.23 53.21 34.02 53.21C31.81 53.21 30.02 55 30.02 57.21C30.02 59.42 31.81 61.21 34.02 61.21ZM34.02 55.21C35.12 55.21 36.02 56.11 36.02 57.21C36.02 58.31 35.12 59.21 34.02 59.21C32.92 59.21 32.02 58.31 32.02 57.21C32.02 56.11 32.92 55.21 34.02 55.21Z" fill="black"/>
</svg>
