<svg width="70" height="70" viewBox="0 0 70 70" fill="none" xmlns="http://www.w3.org/2000/svg">
<path d="M47.45 44C59.048 44 68.45 34.598 68.45 23C68.45 11.402 59.048 2 47.45 2C35.852 2 26.45 11.402 26.45 23C26.45 34.598 35.852 44 47.45 44Z" fill="#F3EDEB"/>
<path d="M5.83 57.92L5.38 57L4.93 57.92C4.34 59.13 3.46 60.11 2.39 60.76L1.69 61.19L2.39 61.62C3.46 62.28 4.34 63.26 4.93 64.46L5.38 65.38L5.83 64.46C6.42 63.25 7.3 62.27 8.37 61.62L9.07 61.19L8.37 60.76C7.3 60.11 6.42 59.12 5.83 57.92ZM5.38 63.22C4.88 62.43 4.25 61.74 3.53 61.19C4.25 60.64 4.87 59.95 5.38 59.16C5.88 59.95 6.51 60.64 7.23 61.19C6.51 61.74 5.89 62.42 5.38 63.22Z" fill="black"/>
<path d="M47.54 61H45C44.45 61 44 61.45 44 62C44 62.55 44.45 63 45 63H47.54C48.09 63 48.54 62.55 48.54 62C48.54 61.45 48.1 61 47.54 61Z" fill="black"/>
<path d="M51.9 7H19C12.63 7 7.44999 12.18 7.44999 18.55V46.12C6.36999 48.07 4.85999 49.69 3.00999 50.78L1.54999 51.64L3.00999 52.5C4.97999 53.67 6.59999 55.42 7.67999 57.56L8.56999 59.33L9.33999 57.8C11.46 61.04 15.04 63 18.99 63H40.31C40.86 63 41.31 62.55 41.31 62C41.31 61.45 40.86 61 40.31 61H18.99C15.4 61 12.17 59.03 10.52 55.85C11.5 54.49 12.72 53.34 14.14 52.5L15.6 51.64L14.14 50.78C12.17 49.61 10.55 47.86 9.46999 45.72L9.44999 45.68V18.55C9.44999 13.28 13.73 9 19 9H51.9C57.17 9 61.45 13.28 61.45 18.55V51.45C61.45 56.72 57.17 61 51.9 61C51.35 61 50.9 61.45 50.9 62C50.9 62.55 51.35 63 51.9 63C58.27 63 63.45 57.82 63.45 51.45V18.55C63.45 12.18 58.26 7 51.9 7ZM11.84 51.64C10.58 52.6 9.46999 53.77 8.56999 55.13C7.66999 53.78 6.56999 52.6 5.30999 51.64C6.56999 50.68 7.67999 49.51 8.56999 48.16C9.46999 49.51 10.58 50.68 11.84 51.64Z" fill="black"/>
<path d="M48.45 35C48.45 27.83 42.62 22 35.45 22C28.28 22 22.45 27.83 22.45 35C22.45 42.17 28.28 48 35.45 48C42.62 48 48.45 42.17 48.45 35ZM35.45 46C29.38 46 24.45 41.07 24.45 35C24.45 28.93 29.38 24 35.45 24C41.52 24 46.45 28.93 46.45 35C46.45 41.07 41.51 46 35.45 46Z" fill="black"/>
<path d="M56.5 17.21C56.5 15.28 54.93 13.71 53 13.71C51.07 13.71 49.5 15.28 49.5 17.21C49.5 19.14 51.07 20.71 53 20.71C54.93 20.71 56.5 19.14 56.5 17.21ZM50.5 17.21C50.5 15.83 51.62 14.71 53 14.71C54.38 14.71 55.5 15.83 55.5 17.21C55.5 18.59 54.38 19.71 53 19.71C51.62 19.71 50.5 18.59 50.5 17.21Z" fill="black"/>
</svg>
