<svg width="70" height="70" viewBox="0 0 70 70" fill="none" xmlns="http://www.w3.org/2000/svg">
<path d="M44.12 43.92C55.718 43.92 65.12 34.518 65.12 22.92C65.12 11.322 55.718 1.92 44.12 1.92C32.522 1.92 23.12 11.322 23.12 22.92C23.12 34.518 32.522 43.92 44.12 43.92Z" fill="#F3EDEB"/>
<path d="M48.88 45.27C52.63 41.11 54.62 35.43 54.62 28.86C54.62 23.5 53 18.45 49.96 14.23C50.8 13.3 51.76 12.5 52.83 11.86L53.56 11.43L52.83 11C50.77 9.78 49.09 7.96 47.96 5.74L47.51 4.86L47.06 5.74C46.45 6.95 45.66 8.03 44.75 8.96C40.68 5.96 35.83 4.36 30.67 4.36C30.59 4.36 30.51 4.37 30.44 4.37C30.42 4.37 30.41 4.36 30.39 4.37C30.37 4.37 30.36 4.38 30.34 4.38C23.79 4.45 17.74 7.11 13.3 11.9C13.11 12.1 13.12 12.42 13.33 12.61C13.43 12.7 13.55 12.74 13.67 12.74C13.8 12.74 13.94 12.69 14.04 12.58C17.63 8.71 22.33 6.29 27.5 5.58C26.51 6.46 25.87 7.73 25.87 9.15C25.87 10.75 26.67 12.17 27.9 13.05C18.05 14.29 11.86 22.17 11.26 34.37C11.26 34.39 11.25 34.41 11.25 34.43C11.24 34.49 11.25 34.55 11.26 34.6C11.25 34.94 11.23 35.28 11.23 35.62H8.55999C8.02999 33.51 7.74999 31.25 7.74999 28.85C7.74999 26.18 8.16999 23.56 8.99999 21.07C9.08999 20.81 8.94999 20.53 8.67999 20.44C8.41999 20.35 8.12999 20.49 8.04999 20.76C7.17999 23.35 6.73999 26.07 6.73999 28.86C6.73999 35.44 8.72999 41.11 12.49 45.28C12.5 45.29 12.51 45.29 12.52 45.3C13.07 47.13 13.79 48.91 14.68 50.61C13.75 51.73 12.68 52.7 11.44 53.43L10.71 53.86L11.44 54.29C13.5 55.51 15.18 57.33 16.31 59.55L16.76 60.43L17.21 59.55C17.7 58.57 18.32 57.69 19.02 56.88C20.93 59.02 23.07 60.75 25.22 61.96V67.35C25.22 67.63 25.44 67.85 25.72 67.85C26 67.85 26.22 67.63 26.22 67.35V62.5C27.73 63.23 29.22 63.7 30.64 63.85L30.7 63.86L30.76 63.85C32.17 63.67 33.68 63.18 35.21 62.43V67.57C35.21 67.85 35.43 68.07 35.71 68.07C35.99 68.07 36.21 67.85 36.21 67.57V61.91C36.21 61.91 36.21 61.91 36.21 61.9C41.34 59 46.53 53.09 48.88 45.27ZM50.18 36.62H52.52C51.83 38.93 50.82 41.05 49.49 42.9C49.92 40.92 50.16 38.82 50.18 36.62ZM47.52 7C48.57 8.79 49.98 10.3 51.64 11.43C50.67 12.09 49.8 12.88 49.03 13.78H49.02C48.95 13.83 48.91 13.89 48.88 13.96C48.38 14.55 47.92 15.18 47.52 15.86C46.47 14.07 45.06 12.56 43.4 11.43C44 11.03 44.55 10.56 45.07 10.06C45.13 10.03 45.19 9.98 45.23 9.93C45.24 9.92 45.24 9.9 45.25 9.89C46.12 9.03 46.89 8.08 47.52 7ZM26.86 9.15C26.86 7.17 28.4 5.52 30.37 5.36C30.47 5.36 30.58 5.35 30.68 5.35C35.56 5.35 40.15 6.84 44.01 9.65C43.44 10.15 42.85 10.61 42.2 10.99L41.47 11.42L42.2 11.85C44.26 13.07 45.94 14.89 47.07 17.12L47.52 18L47.97 17.12C48.35 16.37 48.81 15.69 49.31 15.04C52.12 19.05 53.62 23.8 53.62 28.86C53.62 31.25 53.35 33.52 52.81 35.63H50.16C50.15 35.29 50.14 34.95 50.13 34.61C50.15 34.55 50.15 34.48 50.14 34.41C50.14 34.38 50.13 34.36 50.12 34.33C49.44 21.04 42.14 12.86 30.69 12.86C30.45 12.86 30.23 12.89 30 12.89C28.18 12.56 26.86 11 26.86 9.15ZM30.69 13.86C40.63 13.86 47.29 20.41 48.84 31.28C47.41 29.18 45.08 27.57 42.78 27.36C32.36 26.41 31.71 17.22 31.69 16.83C31.69 16.81 31.68 16.8 31.68 16.78C31.67 16.74 31.67 16.71 31.65 16.67C31.64 16.65 31.63 16.63 31.62 16.61C31.6 16.57 31.57 16.53 31.53 16.5C31.52 16.49 31.52 16.49 31.51 16.48C31.47 16.44 31.42 16.42 31.37 16.4C31.36 16.4 31.35 16.39 31.34 16.39C31.31 16.38 31.28 16.36 31.25 16.36C31.23 16.36 31.22 16.36 31.21 16.36C31.2 16.36 31.19 16.35 31.18 16.35C31.16 16.35 31.14 16.36 31.12 16.36C31.08 16.37 31.05 16.37 31.02 16.39C30.99 16.4 30.97 16.41 30.95 16.43C30.92 16.45 30.89 16.47 30.87 16.49C30.85 16.51 30.83 16.53 30.81 16.56C30.79 16.59 30.77 16.61 30.76 16.65C30.75 16.68 30.74 16.71 30.73 16.74C30.73 16.76 30.71 16.78 30.71 16.8C30.67 17.19 29.61 26.4 19.16 27.35C16.89 27.56 14.13 29.24 12.52 31.5C13.99 20.5 20.67 13.86 30.69 13.86ZM8.85999 36.62H11.2C11.22 38.75 11.47 40.88 11.93 42.97C10.58 41.1 9.55999 38.96 8.85999 36.62ZM16.76 58.28C15.71 56.49 14.3 54.98 12.64 53.85C14.31 52.72 15.71 51.21 16.76 49.42C17.81 51.21 19.22 52.72 20.88 53.85C19.22 54.98 17.82 56.49 16.76 58.28ZM30.68 62.85C27.16 62.45 23.08 59.96 19.7 56.15C20.42 55.44 21.2 54.8 22.07 54.28L22.8 53.85L22.07 53.42C20.01 52.2 18.33 50.38 17.21 48.16L16.76 47.28L16.31 48.16C16.03 48.71 15.72 49.24 15.37 49.74C13.29 45.58 12.18 40.97 12.18 36.36C12.18 35.72 12.21 35.11 12.24 34.5C12.81 31.39 16.5 28.61 19.22 28.36C27.16 27.64 30.09 22.31 31.13 19.19C32.04 22.33 34.74 27.64 42.68 28.36C45.54 28.62 48.57 31.5 49.12 34.45C49.15 35.08 49.18 35.71 49.18 36.36C49.19 51.06 38.25 61.84 30.68 62.85Z" fill="black"/>
<path d="M27.69 37.36C27.69 37.08 27.47 36.86 27.19 36.86C26.91 36.86 26.69 37.08 26.69 37.36C26.69 39.01 24.9 40.36 22.69 40.36C20.48 40.36 18.69 39.01 18.69 37.36C18.69 37.08 18.47 36.86 18.19 36.86C17.91 36.86 17.69 37.08 17.69 37.36C17.69 39.57 19.93 41.36 22.69 41.36C25.45 41.36 27.69 39.56 27.69 37.36Z" fill="black"/>
<path d="M43.19 36.86C42.91 36.86 42.69 37.08 42.69 37.36C42.69 39.01 40.9 40.36 38.69 40.36C36.48 40.36 34.69 39.01 34.69 37.36C34.69 37.08 34.47 36.86 34.19 36.86C33.91 36.86 33.69 37.08 33.69 37.36C33.69 39.57 35.93 41.36 38.69 41.36C41.45 41.36 43.69 39.57 43.69 37.36C43.69 37.08 43.46 36.86 43.19 36.86Z" fill="black"/>
<path d="M34.04 31.38C33.78 31.46 33.63 31.74 33.71 32.01C33.79 32.27 34.07 32.42 34.34 32.34C34.42 32.31 42.42 29.84 44.97 34.75C45.06 34.92 45.23 35.02 45.41 35.02C45.49 35.02 45.57 35 45.64 34.96C45.89 34.83 45.98 34.53 45.85 34.29C42.93 28.63 34.4 31.27 34.04 31.38Z" fill="black"/>
<path d="M27.04 32.33C27.3 32.41 27.58 32.27 27.67 32C27.76 31.73 27.61 31.46 27.34 31.37C26.98 31.26 18.45 28.62 15.52 34.27C15.39 34.52 15.49 34.82 15.73 34.94C15.8 34.98 15.88 35 15.96 35C16.14 35 16.32 34.9 16.4 34.73C18.95 29.84 26.96 32.31 27.04 32.33Z" fill="black"/>
<path d="M37.16 50.92C36.92 50.79 36.61 50.87 36.48 51.12C35.75 52.44 33.37 53.36 30.69 53.36C28.01 53.36 25.63 52.44 24.9 51.12C24.77 50.88 24.46 50.79 24.22 50.92C23.98 51.05 23.89 51.36 24.02 51.6C24.93 53.25 27.61 54.36 30.69 54.36C33.77 54.36 36.45 53.25 37.36 51.6C37.49 51.36 37.4 51.05 37.16 50.92Z" fill="black"/>
<path d="M12.26 48.84L11.56 48.41C10.49 47.75 9.61001 46.77 9.02001 45.57L8.57 44.65L8.12 45.57C7.53 46.78 6.65 47.76 5.58 48.41L4.88 48.84L5.58 49.27C6.65 49.93 7.53 50.91 8.12 52.11L8.57 53.03L9.02001 52.11C9.61001 50.9 10.49 49.92 11.56 49.27L12.26 48.84ZM8.57 50.87C8.07 50.08 7.44 49.39 6.72 48.84C7.44 48.29 8.07 47.6 8.57 46.81C9.07 47.6 9.7 48.29 10.42 48.84C9.7 49.39 9.07 50.07 8.57 50.87Z" fill="black"/>
<path d="M10.4 16.71C10.48 16.76 10.57 16.78 10.65 16.78C10.82 16.78 10.99 16.69 11.08 16.53C11.25 16.24 11.43 15.96 11.61 15.68C11.76 15.45 11.7 15.14 11.46 14.99C11.23 14.84 10.92 14.91 10.77 15.14C10.58 15.43 10.4 15.73 10.22 16.03C10.08 16.26 10.16 16.57 10.4 16.71Z" fill="black"/>
</svg>
