<svg width="70" height="70" viewBox="0 0 70 70" fill="none" xmlns="http://www.w3.org/2000/svg">
<path d="M46.09 43.92C57.688 43.92 67.09 34.518 67.09 22.92C67.09 11.322 57.688 1.92 46.09 1.92C34.492 1.92 25.09 11.322 25.09 22.92C25.09 34.518 34.492 43.92 46.09 43.92Z" fill="#F3EDEB"/>
<path d="M8.49997 41.41L8.94997 42.29L9.38997 41.41C10.475 39.2257 12.1656 37.3998 14.26 36.15L14.99 35.72L14.26 35.28C12.1627 34.0249 10.4719 32.1916 9.38997 30L8.99997 29.14L8.49997 30C7.41493 32.1843 5.72435 34.0102 3.62997 35.26L2.90997 35.7L3.62997 36.13C5.72721 37.3851 7.41808 39.2184 8.49997 41.41ZM8.99997 31.29C10.0252 33.0558 11.433 34.5696 13.12 35.72C11.4312 36.8642 10.0228 38.3751 8.99997 40.14C7.97066 38.3767 6.55944 36.8664 4.86997 35.72C6.55747 34.5671 7.96806 33.0541 8.99997 31.29Z" fill="black"/>
<path d="M53.27 18.68L53.72 19.6L54.17 18.68C54.7291 17.5082 55.61 16.5197 56.71 15.83L57.41 15.41L56.71 14.98C55.6125 14.2917 54.732 13.3072 54.17 12.14L53.72 11.22L53.27 12.14C52.7112 13.3146 51.8304 14.3063 50.73 15L50.03 15.43L50.73 15.85C51.8272 16.5343 52.7079 17.5155 53.27 18.68ZM53.72 13.38C54.2148 14.1499 54.8409 14.8269 55.57 15.38C54.8388 15.9308 54.2122 16.6081 53.72 17.38C53.2278 16.6081 52.6013 15.9308 51.87 15.38C52.5991 14.8269 53.2253 14.1499 53.72 13.38Z" fill="black"/>
<path d="M15.27 26.68L15.72 27.6L16.17 26.68C16.7291 25.5082 17.61 24.5197 18.71 23.83L19.41 23.41L18.71 22.98C17.6125 22.2917 16.732 21.3072 16.17 20.14L15.72 19.22L15.27 20.14C14.7112 21.3146 13.8304 22.3063 12.73 23L12.03 23.43L12.73 23.85C13.8272 24.5343 14.7079 25.5155 15.27 26.68ZM15.72 21.38C16.2148 22.1499 16.8409 22.8269 17.57 23.38C16.8388 23.9308 16.2122 24.6081 15.72 25.38C15.2278 24.6081 14.6013 23.9308 13.87 23.38C14.5991 22.8269 15.2253 22.1499 15.72 21.38Z" fill="black"/>
<path d="M18.45 62.36H16.57C16.4374 62.36 16.3102 62.4127 16.2165 62.5064C16.1227 62.6002 16.07 62.7274 16.07 62.86C16.07 62.9926 16.1227 63.1198 16.2165 63.2136C16.3102 63.3073 16.4374 63.36 16.57 63.36H18.45C18.5826 63.36 18.7098 63.3073 18.8036 63.2136C18.8973 63.1198 18.95 62.9926 18.95 62.86C18.95 62.7274 18.8973 62.6002 18.8036 62.5064C18.7098 62.4127 18.5826 62.36 18.45 62.36Z" fill="black"/>
<path d="M63.29 36.46C62.4462 35.6173 61.3025 35.144 60.11 35.144C58.9175 35.144 57.7737 35.6173 56.93 36.46L43.37 50C43.1639 48.4376 42.3972 47.0032 41.2125 45.9639C40.0279 44.9245 38.5059 44.351 36.93 44.35H23.42C22.5656 44.3462 21.719 44.5123 20.9293 44.8384C20.1397 45.1646 19.4227 45.6444 18.82 46.25L14.72 50.35H5.65997C5.52736 50.35 5.40019 50.4027 5.30642 50.4964C5.21265 50.5902 5.15997 50.7174 5.15997 50.85V62.85C5.15997 62.9826 5.21265 63.1098 5.30642 63.2035C5.40019 63.2973 5.52736 63.35 5.65997 63.35H12.36C12.4918 63.3474 12.6175 63.2939 12.7107 63.2007C12.8039 63.1075 12.8574 62.9818 12.86 62.85C12.86 62.7174 12.8073 62.5902 12.7135 62.4964C12.6198 62.4027 12.4926 62.35 12.36 62.35H6.15997V51.35H14.93C15.0647 51.3476 15.1934 51.2939 15.29 51.2L19.53 47C20.0396 46.4875 20.6458 46.0814 21.3136 45.805C21.9813 45.5286 22.6973 45.3876 23.42 45.39H36.93C38.3026 45.3893 39.6259 45.9019 40.6398 46.827C41.6538 47.7522 42.2852 49.0231 42.41 50.39H23.41C23.2774 50.39 23.1502 50.4427 23.0564 50.5364C22.9627 50.6302 22.91 50.7574 22.91 50.89C22.91 51.0226 22.9627 51.1498 23.0564 51.2435C23.1502 51.3373 23.2774 51.39 23.41 51.39H42.72C42.8151 51.4822 42.9424 51.5338 43.075 51.5338C43.2075 51.5338 43.3348 51.4822 43.43 51.39L57.63 37.2C57.955 36.875 58.3409 36.6172 58.7655 36.4412C59.1902 36.2653 59.6453 36.1748 60.105 36.1748C60.5646 36.1748 61.0198 36.2653 61.4444 36.4412C61.8691 36.6172 62.255 36.875 62.58 37.2C62.905 37.525 63.1628 37.9109 63.3387 38.3355C63.5146 38.7602 63.6052 39.2153 63.6052 39.675C63.6052 40.1346 63.5146 40.5898 63.3387 41.0145C63.1628 41.4391 62.905 41.825 62.58 42.15L42.34 62.36H22.43C22.2974 62.36 22.1702 62.4127 22.0764 62.5064C21.9827 62.6002 21.93 62.7274 21.93 62.86C21.93 62.9926 21.9827 63.1198 22.0764 63.2135C22.1702 63.3073 22.2974 63.36 22.43 63.36H42.56C42.6255 63.3608 42.6906 63.3479 42.7508 63.322C42.8111 63.2962 42.8653 63.258 42.91 63.21L63.29 42.82C63.7084 42.4029 64.0405 41.9073 64.267 41.3616C64.4935 40.8159 64.6102 40.2308 64.6102 39.64C64.6102 39.0491 64.4935 38.4641 64.267 37.9184C64.0405 37.3727 63.7084 36.8771 63.29 36.46Z" fill="black"/>
<path d="M46.9 29.86C46.7753 29.8185 46.6393 29.8278 46.5214 29.8858C46.4035 29.9438 46.3132 30.0459 46.27 30.17C46.18 30.4 46.09 30.64 45.98 30.86C45.951 30.9191 45.9339 30.9833 45.9298 31.049C45.9256 31.1147 45.9345 31.1805 45.9559 31.2428C45.9772 31.305 46.0107 31.3624 46.0543 31.4117C46.0979 31.461 46.1508 31.5012 46.21 31.53C46.2827 31.5438 46.3573 31.5438 46.43 31.53C46.5234 31.529 46.6148 31.5024 46.6942 31.453C46.7736 31.4037 46.8378 31.3334 46.88 31.25C47.0087 30.9914 47.119 30.7241 47.21 30.45C47.2377 30.3308 47.2216 30.2057 47.1647 30.0974C47.1078 29.989 47.0138 29.9048 46.9 29.86Z" fill="black"/>
<path d="M31.71 31.32C31.94 31.32 32.19 31.32 32.43 31.32C32.67 31.32 32.92 31.32 33.16 31.32C33.4232 31.2936 33.684 31.2468 33.94 31.18C33.9739 31.2694 34.014 31.3562 34.06 31.44C34.5901 32.5169 35.3882 33.4393 36.3776 34.1188C37.3671 34.7983 38.5146 35.2119 39.71 35.32C39.94 35.32 40.19 35.32 40.43 35.32C40.67 35.32 40.92 35.32 41.16 35.32C42.836 35.1806 44.4021 34.4296 45.56 33.21C45.6069 33.1635 45.6441 33.1082 45.6695 33.0473C45.6948 32.9864 45.7079 32.921 45.7079 32.855C45.7079 32.789 45.6948 32.7236 45.6695 32.6627C45.6441 32.6018 45.6069 32.5465 45.56 32.5C45.4649 32.4078 45.3375 32.3562 45.205 32.3562C45.0725 32.3562 44.9452 32.4078 44.85 32.5C43.8609 33.5509 42.5182 34.1991 41.08 34.32C40.6543 34.36 40.2257 34.36 39.8 34.32C38.7835 34.2209 37.8091 33.8639 36.9691 33.283C36.1292 32.702 35.4514 31.9162 35 31C34.4892 30.0088 34.2395 28.9037 34.2745 27.7891C34.3095 26.6745 34.628 25.5872 35.2 24.63L40.48 15.84L45.76 24.63C46.4291 25.7439 46.7495 27.0325 46.68 28.33C46.6745 28.461 46.7207 28.5889 46.8086 28.6861C46.8965 28.7834 47.0191 28.8423 47.15 28.85C47.2166 28.8586 47.2842 28.8528 47.3483 28.833C47.4125 28.8133 47.4716 28.78 47.5219 28.7355C47.5721 28.691 47.6122 28.6362 47.6395 28.5749C47.6667 28.5136 47.6806 28.4471 47.68 28.38C47.7595 26.8861 47.3903 25.4025 46.62 24.12L40.43 13.88L37.63 18.55L32.43 9.88L26.3 20.11C25.6358 21.209 25.265 22.4602 25.223 23.7437C25.1809 25.0271 25.4691 26.2999 26.06 27.44C26.5901 28.5169 27.3882 29.4394 28.3776 30.1188C29.3671 30.7983 30.5146 31.2119 31.71 31.32ZM27.15 20.62L32.43 11.83L37.05 19.52L34.3 24.11C33.7502 25.0215 33.4015 26.0399 33.2773 27.0972C33.1531 28.1544 33.2563 29.2259 33.58 30.24C33.41 30.24 33.24 30.31 33.07 30.33C32.6443 30.37 32.2157 30.37 31.79 30.33C30.7743 30.2283 29.8012 29.8691 28.963 29.2864C28.1249 28.7036 27.4492 27.9167 27 27C26.4799 26.0117 26.2206 24.907 26.2469 23.7905C26.2731 22.674 26.584 21.5827 27.15 20.62Z" fill="black"/>
</svg>
